<?xml version="1.0" standalone="no"?>
<!DOCTYPE svg PUBLIC "-//W3C//DTD SVG 20010904//EN"
 "http://www.w3.org/TR/2001/REC-SVG-20010904/DTD/svg10.dtd">
<svg version="1.0" xmlns="http://www.w3.org/2000/svg"
 width="512.000000pt" height="512.000000pt" viewBox="0 0 512.000000 512.000000"
 preserveAspectRatio="xMidYMid meet">
<metadata>
Created by potrace 1.14, written by Peter Selinger 2001-2017
</metadata>
<g transform="translate(0.000000,512.000000) scale(0.100000,-0.100000)"
fill="#000000" stroke="none">
<path d="M2084 4945 c-207 -46 -403 -203 -493 -397 -64 -136 -64 -139 -69
-553 l-3 -380 -24 -25 c-37 -39 -57 -106 -51 -171 7 -68 25 -106 73 -153 44
-42 97 -62 178 -65 33 -2 62 -4 66 -7 3 -2 9 -25 13 -51 27 -200 155 -397 343
-528 41 -29 43 -32 43 -82 l0 -51 -97 -17 c-54 -9 -129 -22 -168 -30 -38 -8
-115 -21 -170 -30 -345 -57 -617 -236 -779 -514 -43 -73 -100 -208 -112 -261
-3 -14 -7 -36 -10 -50 -20 -91 -23 -196 -23 -812 l-1 -688 1760 0 1761 0 -4
728 c-3 702 -4 730 -24 802 -59 209 -140 350 -288 497 -116 116 -247 197 -397
247 -65 22 -249 59 -550 111 l-98 17 0 52 c0 50 1 52 48 81 70 44 173 150 224
230 39 62 53 91 90 184 14 37 37 153 32 165 -3 7 15 10 56 8 154 -9 265 90
265 238 0 68 -17 117 -54 156 -19 21 -20 38 -23 345 l-3 324 -34 68 c-62 123
-180 208 -312 224 l-47 5 -6 56 c-14 123 -108 248 -231 308 l-60 29 -380 2
c-290 1 -395 -1 -441 -12z"/>
</g>
</svg>
