<svg xmlns="http://www.w3.org/2000/svg" version="1.1" xmlns:xlink="http://www.w3.org/1999/xlink" xmlns:svgjs="http://svgjs.com/svgjs" width="300.000000pt" height="300.000000pt"><svg version="1.0" xmlns="http://www.w3.org/2000/svg" width="300.000000pt" height="300.000000pt" viewBox="0 0 300.000000 300.000000" preserveAspectRatio="xMidYMid meet">
<metadata>
Created by potrace 1.10, written by Peter Selinger 2001-2011
</metadata>
<g transform="translate(0.000000,300.000000) scale(0.100000,-0.100000)" fill="#000000" stroke="none">
<path d="M1763 2993 c-33 -3 -53 -9 -57 -19 -6 -15 17 -15 54 -2 8 4 35 10 60
16 46 10 33 11 -57 5z"></path>
<path d="M2167 2986 c32 -14 72 -13 101 3 9 5 0 8 -26 8 -26 0 -39 -4 -35 -10
4 -7 -1 -8 -13 -3 -37 16 -59 17 -27 2z"></path>
<path d="M2290 2990 c0 -6 16 -8 43 -4 58 9 59 14 4 14 -26 0 -47 -5 -47 -10z"></path>
<path d="M2793 2993 c8 -7 108 -5 116 2 2 3 -24 5 -59 5 -35 0 -60 -3 -57 -7z"></path>
<path d="M1966 2983 c-3 -3 2 -12 12 -19 15 -11 13 -13 -18 -12 -19 1 -38 5
-41 10 -3 5 -30 2 -60 -6 -30 -8 -44 -15 -31 -15 12 -1 22 -5 22 -10 0 -6 -18
-10 -39 -9 -22 0 -45 -3 -52 -7 -8 -5 -10 -4 -5 3 9 15 4 15 -28 -2 -26 -13
-25 -13 25 -15 68 -1 73 -8 12 -16 -64 -9 -75 -13 -68 -25 11 -18 131 4 139
26 3 7 14 11 25 9 11 -2 23 0 26 6 4 5 15 9 26 9 11 0 17 4 14 10 -5 9 15 8
78 -5 9 -2 15 1 12 5 -3 5 -1 11 5 15 6 4 8 10 5 15 -3 4 7 5 22 1 16 -5 27
-13 26 -19 -2 -8 6 -8 28 0 34 12 31 20 -9 26 -15 2 -28 7 -30 12 -2 5 -13 5
-26 0 -16 -6 -30 -4 -43 5 -11 8 -23 12 -27 8z"></path>
<path d="M2165 2900 c-7 -11 -8 -11 25 -15 32 -3 46 5 29 16 -19 12 -46 11
-54 -1z"></path>
<path d="M2632 2854 c-13 -9 -30 -13 -38 -10 -16 6 -64 -13 -64 -25 0 -4 9 -7
19 -6 11 0 18 4 16 8 -3 3 10 6 27 7 17 0 40 10 52 21 24 25 19 27 -12 5z"></path>
<path d="M1600 2854 c0 -13 35 -33 55 -33 16 1 15 3 -8 13 -15 7 -24 15 -21
19 4 4 0 7 -9 7 -9 0 -17 -3 -17 -6z"></path>
<path d="M1270 2831 c0 -13 9 -18 53 -26 25 -5 37 -4 37 4 0 6 -12 11 -26 11
-14 0 -34 5 -45 10 -12 7 -19 7 -19 1z"></path>
<path d="M1478 2826 c-8 -8 -27 -12 -53 -10 -31 3 -35 2 -20 -5 34 -16 85 -13
85 5 0 13 3 14 14 5 8 -7 30 -11 48 -8 l33 4 -37 1 c-21 1 -38 7 -38 12 0 14
-17 12 -32 -4z"></path>
<path d="M332 2615 c-18 -9 -20 -14 -9 -18 8 -3 23 -4 33 -2 11 2 39 4 64 5
l45 2 -50 14 c-58 16 -53 16 -83 -1z"></path>
<path d="M995 2572 c-11 -2 -27 -13 -37 -24 -10 -12 -22 -17 -29 -12 -7 4 -9
3 -6 -3 4 -5 -4 -15 -16 -22 -30 -16 -82 -126 -80 -170 2 -69 19 -125 34 -115
11 6 11 -10 0 -56 -5 -24 -3 -45 6 -65 12 -28 13 -27 8 30 l-5 60 16 -37 c19
-43 59 -62 112 -52 33 6 47 25 66 87 8 26 24 12 37 -33 14 -46 50 -66 103 -56
31 6 37 13 55 62 29 76 27 87 -16 102 -72 26 -88 25 -120 -2 -17 -14 -37 -26
-44 -26 -15 1 -59 30 -45 30 5 0 3 7 -4 15 -16 19 -44 19 -73 1 -22 -13 -87
-29 -87 -21 0 2 15 29 33 59 63 104 175 137 294 87 62 -26 63 -27 87 -91 30
-81 42 -140 24 -122 -7 7 -17 12 -22 12 -7 0 -6 -3 1 -8 13 -8 20 -112 9 -130
-4 -7 -1 -12 8 -12 12 0 16 11 16 49 0 36 4 51 16 55 9 4 14 9 10 13 -3 3 1
14 10 24 20 23 26 159 8 194 -7 13 -15 37 -19 54 -6 27 -9 29 -25 21 -16 -9
-22 -5 -34 19 -34 65 -179 107 -291 83z m65 -42 c-19 -12 60 -7 80 5 9 6 11 4
5 -5 -6 -9 0 -11 21 -6 16 3 36 2 44 -4 12 -8 11 -10 -7 -10 -13 0 -23 -4 -23
-10 0 -5 9 -10 19 -10 30 0 52 -11 44 -23 -3 -5 -1 -7 4 -4 11 7 68 -32 59
-40 -3 -3 1 -12 9 -20 8 -8 15 -31 15 -50 l0 -37 -32 46 c-19 25 -39 43 -46
40 -8 -2 -20 5 -28 16 -15 22 -70 44 -117 48 -32 2 -121 -28 -146 -49 -27 -23
-45 -32 -36 -17 6 9 4 11 -4 5 -7 -4 -22 -21 -33 -39 l-20 -31 7 30 c4 17 13
37 21 46 8 8 14 23 14 32 0 8 9 19 20 22 11 3 20 15 20 25 0 13 5 17 20 13 11
-3 20 0 20 6 0 6 15 15 33 20 43 12 55 13 37 1z m-19 -299 c13 -14 14 -19 0
-45 -14 -29 -14 -29 -22 -8 -5 12 -11 22 -14 22 -4 0 -4 -4 -1 -8 8 -13 -23
-52 -40 -52 -8 0 -17 7 -21 16 -3 8 -12 13 -19 10 -12 -4 -17 3 -13 17 0 1 -4
15 -10 30 -10 26 -9 28 19 34 17 3 33 9 35 14 7 10 66 -10 86 -30z m197 6 c6
-5 12 -20 12 -33 0 -28 -20 -74 -32 -74 -11 0 -10 17 1 22 5 2 4 14 -2 28 -9
23 -10 23 -15 5 -11 -52 -39 -57 -71 -14 -21 28 -22 32 -7 55 13 19 24 24 59
23 23 -1 48 -6 55 -12z"></path>
<path d="M990 2484 c-19 -7 -29 -13 -22 -13 7 -1 10 -5 7 -11 -3 -5 -1 -10 4
-10 6 0 11 4 11 9 0 5 13 12 30 16 33 7 51 26 23 24 -10 -1 -34 -7 -53 -15z"></path>
<path d="M0 2494 c0 -18 3 -24 8 -17 6 10 13 9 33 -1 32 -16 149 -56 163 -55
6 0 1 4 -11 9 -16 7 -24 21 -29 50 -9 53 -34 55 -35 3 0 -21 -3 -32 -6 -25 -2
6 -11 12 -19 12 -8 0 -14 6 -14 14 0 7 -12 16 -28 19 -15 3 -35 9 -44 12 -15
6 -18 2 -18 -21z"></path>
<path d="M1514 2468 c-3 -5 -15 -6 -26 -2 -14 4 -18 2 -14 -5 4 -6 29 -11 55
-11 27 0 63 -3 80 -6 27 -6 29 -9 19 -22 -11 -13 -9 -15 21 -9 18 4 63 8 100
9 36 0 51 3 34 5 -18 2 -33 8 -33 14 0 5 -21 9 -47 9 -27 1 -79 7 -116 14 -38
7 -70 9 -73 4z"></path>
<path d="M2930 2470 l-55 -7 57 -1 c31 -1 60 3 63 8 3 6 3 9 -2 8 -4 -1 -33
-4 -63 -8z"></path>
<path d="M190 2458 c0 -5 6 -8 13 -8 44 -2 122 -11 125 -15 3 -3 11 0 18 6 7
6 18 8 25 4 8 -5 8 -10 1 -14 -6 -4 -13 -27 -16 -51 -4 -36 -4 -39 3 -15 l9
30 2 -30 c2 -22 5 -17 9 20 10 77 6 80 -98 80 -50 0 -91 -3 -91 -7z"></path>
<path d="M2623 2454 c7 -7 169 -6 176 1 2 3 -38 5 -89 5 -51 0 -90 -3 -87 -6z"></path>
<path d="M426 2411 c-18 -7 -18 -8 5 -14 13 -4 35 -7 49 -7 l25 1 -25 14 c-28
16 -28 16 -54 6z"></path>
<path d="M1875 2410 c-65 -7 -48 -13 25 -9 66 4 77 3 165 -3 l80 -7 -55 14
c-58 15 -115 16 -215 5z"></path>
<path d="M10 2389 c0 -5 6 -9 13 -10 98 -8 94 -7 99 -27 4 -15 17 -19 63 -21
41 -1 62 -7 72 -19 11 -15 12 -15 13 6 0 15 -6 22 -19 22 -14 0 -17 6 -13 25
4 22 1 25 -22 25 -21 0 -26 -5 -26 -25 0 -18 -5 -25 -18 -25 -11 0 -24 11 -30
25 -10 21 -19 25 -54 26 -24 0 -51 2 -60 4 -10 2 -18 -1 -18 -6z"></path>
<path d="M625 2389 c-20 -4 -3 -7 50 -8 44 0 85 3 91 7 15 9 -101 10 -141 1z"></path>
<path d="M1630 2370 c8 -5 53 -9 100 -9 102 1 71 15 -40 17 -53 2 -71 -1 -60
-8z"></path>
<path d="M280 2317 c0 -14 3 -18 8 -10 9 15 162 15 162 0 0 -7 4 -7 12 1 19
19 3 24 -91 27 -87 3 -91 2 -91 -18z"></path>
<path d="M130 2300 c0 -13 5 -17 20 -13 24 6 22 25 -3 29 -11 1 -17 -5 -17
-16z"></path>
<path d="M484 2309 c-5 -9 2 -13 19 -10 4 0 7 -3 7 -9 0 -5 5 -10 10 -10 6 0
10 6 10 14 0 16 -37 28 -46 15z"></path>
<path d="M413 2255 c2 -39 5 -45 25 -45 12 0 22 5 22 11 0 12 -39 79 -45 79
-2 0 -3 -20 -2 -45z"></path>
<path d="M345 2280 c-4 -6 -13 -9 -21 -6 -9 4 -18 -3 -23 -17 -11 -28 12 -46
59 -47 35 0 36 1 35 40 0 22 -3 40 -7 40 -5 0 -8 -16 -8 -35 0 -19 -5 -35 -11
-35 -7 0 -9 10 -7 24 6 30 -6 54 -17 36z"></path>
<path d="M484 2267 c3 -10 6 -27 6 -37 0 -15 8 -18 53 -17 28 0 55 5 58 10 8
11 29 1 29 -14 0 -6 -5 -7 -12 -3 -7 4 -8 3 -4 -4 10 -16 27 -15 40 3 8 10 15
12 26 5 13 -8 12 -10 -4 -10 -32 0 -12 -10 32 -16 35 -5 42 -3 42 11 0 9 -5
13 -10 10 -6 -3 -13 1 -16 9 -3 9 -22 18 -42 22 -21 4 -40 12 -44 18 -5 8 -8
7 -8 -1 0 -7 -9 -13 -20 -13 -11 0 -20 5 -20 11 0 6 -6 9 -14 6 -9 -4 -16 1
-19 11 -4 18 -6 15 -24 -38 -4 -11 -7 -12 -10 -2 -3 6 -9 10 -14 6 -5 -3 -9 0
-9 5 0 6 5 11 10 11 6 0 10 5 10 11 0 5 -5 7 -11 3 -6 -3 -16 0 -21 7 -8 11
-8 10 -4 -4z"></path>
<path d="M31 2230 c1 -20 17 -59 18 -42 1 6 10 12 22 12 14 0 19 -5 16 -14 -3
-8 -1 -17 6 -20 7 -4 -3 -4 -20 -1 -18 2 -33 1 -33 -3 1 -16 28 -41 51 -47 24
-6 24 -5 21 59 l-4 64 -39 4 c-30 3 -39 0 -38 -12z"></path>
<path d="M1411 2231 c-11 -7 -9 -11 8 -21 13 -6 29 -9 37 -6 8 3 24 -4 35 -15
l20 -20 -3 33 c-3 31 -6 33 -43 36 -22 1 -46 -2 -54 -7z"></path>
<path d="M214 2196 c-10 -26 -1 -28 57 -12 42 12 48 15 24 15 -16 1 -40 4 -52
7 -16 4 -25 1 -29 -10z"></path>
<path d="M2402 2194 c-9 -16 -14 -17 -38 -6 -22 11 -29 11 -35 0 -7 -10 -9
-10 -9 0 0 6 -9 12 -21 12 -11 0 -18 -3 -16 -7 3 -5 -23 -8 -56 -8 -34 0 -100
-6 -147 -12 -172 -25 -507 -40 -549 -25 -24 9 -31 8 -31 -2 0 -15 97 -30 124
-20 12 5 16 -1 17 -22 0 -27 1 -28 11 -8 6 14 19 21 36 21 76 -1 368 19 402
28 28 7 134 15 213 17 54 1 103 5 109 9 10 6 84 -10 128 -28 23 -10 34 -10 51
-2 8 4 33 -1 58 -12 48 -21 71 -24 71 -9 0 6 17 3 38 -7 40 -17 195 -42 225
-35 9 2 17 11 17 18 0 10 -7 13 -24 8 -13 -3 -33 -1 -44 5 -14 7 -23 8 -27 1
-3 -5 -16 -10 -28 -10 -18 0 -19 2 -7 10 11 7 2 10 -31 10 -26 0 -60 7 -75 15
-33 17 -64 20 -64 5 0 -6 -18 1 -40 15 -41 26 -70 32 -70 15 0 -17 -36 -11
-64 11 -38 30 -110 37 -124 13z"></path>
<path d="M480 2185 c0 -17 38 -40 48 -29 4 4 1 9 -5 11 -25 9 -12 22 25 26 30
3 28 4 -15 5 -41 2 -53 -1 -53 -13z"></path>
<path d="M795 2150 c-3 -5 -21 -10 -40 -10 -19 0 -37 -4 -40 -10 -10 -15 -35
-12 -35 5 0 8 -7 15 -15 15 -20 0 -19 -10 3 -26 20 -16 106 -19 97 -4 -4 6 8
10 28 10 23 0 34 5 34 15 0 17 -23 20 -32 5z"></path>
<path d="M219 2108 c-1 -31 -1 -32 -9 -8 -7 21 -8 22 -9 5 -2 -34 19 -45 78
-44 31 1 43 4 26 6 -68 8 -72 11 -67 43 3 18 0 30 -7 30 -6 0 -11 -15 -12 -32z"></path>
<path d="M350 2089 l0 -40 26 20 c15 11 30 18 35 15 5 -3 9 6 9 20 0 23 -4 26
-35 26 -34 0 -35 -1 -35 -41z"></path>
<path d="M581 2085 c-24 -23 -24 -24 -3 -18 12 3 22 9 22 14 0 16 56 9 106
-12 37 -17 52 -19 66 -10 10 6 32 11 50 11 25 1 29 3 17 10 -9 5 -45 9 -80 8
-35 -1 -77 2 -94 6 -16 4 -37 9 -45 11 -8 2 -26 -7 -39 -20z"></path>
<path d="M462 2051 c30 -24 51 -27 66 -8 8 9 7 13 -6 14 -9 0 -33 4 -52 8
l-35 8 27 -22z"></path>
<path d="M1640 2023 l0 -53 115 0 c70 0 115 4 115 10 0 6 -40 9 -105 7 l-105
-2 0 30 c0 17 -5 37 -10 45 -7 11 -10 0 -10 -37z"></path>
<path d="M2911 2029 c-14 -5 -30 -8 -38 -5 -7 3 -15 1 -18 -3 -2 -5 -31 -12
-62 -16 -32 -4 -71 -10 -88 -14 -16 -3 -209 -5 -428 -4 -220 1 -397 -1 -394
-4 3 -3 39 -8 79 -13 l73 -7 -80 -3 c-44 -1 -91 -6 -105 -10 -17 -5 -7 -7 30
-4 30 2 237 5 460 5 223 1 389 5 370 8 -29 6 -19 9 53 15 51 5 94 14 102 22
10 11 15 11 18 1 4 -9 7 -9 14 0 5 6 28 13 52 15 53 4 70 28 19 27 -18 0 -44
-5 -57 -10z m-478 -66 c-35 -2 -91 -2 -125 0 -35 2 -7 3 62 3 69 0 97 -1 63
-3z m185 0 c-21 -2 -55 -2 -75 0 -21 2 -4 4 37 4 41 0 58 -2 38 -4z"></path>
<path d="M220 1977 c30 -31 56 -57 58 -57 8 0 -44 57 -78 84 -19 17 -11 5 20
-27z"></path>
<path d="M592 1973 c1 -48 1 -48 5 -8 3 22 10 43 16 47 8 5 6 8 -5 8 -15 0
-18 -8 -16 -47z"></path>
<path d="M653 1948 c0 -69 2 -78 18 -78 11 0 19 5 19 11 0 5 -4 8 -9 4 -5 -3
-12 -1 -16 5 -3 5 0 10 7 11 63 5 91 9 96 14 3 3 -11 5 -31 5 -36 0 -50 13
-24 23 6 3 -2 6 -20 6 -29 1 -32 4 -36 39 -2 20 -4 2 -4 -40z"></path>
<path d="M892 1968 c-2 -38 2 -49 17 -58 28 -14 31 -13 27 13 -3 12 -5 25 -5
30 -2 18 -21 5 -23 -15 0 -13 -4 0 -8 27 l-7 50 -1 -47z"></path>
<path d="M1318 1980 c-4 -23 -1 -40 8 -50 12 -12 14 -11 13 10 -1 14 -4 36 -8
50 -7 24 -8 23 -13 -10z"></path>
<path d="M805 1993 c-49 -5 -59 -20 -35 -51 10 -13 16 -30 13 -39 -8 -20 22
-43 47 -36 17 5 19 13 17 69 -1 35 -2 63 -2 62 0 -1 -18 -3 -40 -5z"></path>
<path d="M1050 1990 c36 -3 76 -3 90 1 14 4 -13 7 -65 7 -89 -1 -90 -1 -25 -8z"></path>
<path d="M1578 1994 c-5 -4 -8 -20 -8 -35 0 -27 2 -28 33 -22 56 11 76 22 32
18 -36 -3 -41 0 -45 22 -3 14 -8 21 -12 17z"></path>
<path d="M1436 1975 c-3 -8 -12 -15 -21 -15 -8 0 -15 -6 -16 -12 -1 -7 -5 -2
-9 12 -7 23 -8 21 -9 -11 -1 -28 -5 -36 -17 -35 -9 0 -19 -5 -21 -11 -3 -9 7
-13 30 -13 49 0 97 11 97 22 0 5 -16 6 -35 2 -19 -3 -35 -2 -35 2 0 19 16 32
42 36 24 3 25 5 13 21 -11 15 -13 16 -19 2z"></path>
<path d="M460 1954 c15 -39 13 -64 -5 -58 -9 4 -15 19 -15 40 l0 34 -64 0 -63
0 -6 -42 c-4 -32 -1 -51 14 -75 11 -18 19 -43 17 -55 -3 -20 1 -23 32 -22 37
0 57 -15 37 -28 -7 -4 17 -7 53 -7 52 0 60 2 41 10 -13 5 -31 7 -40 4 -9 -2
-23 0 -31 5 -12 7 -12 12 -2 22 20 20 15 41 -7 28 -24 -12 -42 -13 -22 -1 10
6 11 13 2 29 -14 26 -14 45 -1 37 6 -3 10 3 10 14 0 12 -7 21 -15 21 -17 0
-17 -4 -15 -72 1 -38 -2 -48 -14 -48 -13 0 -16 14 -16 86 0 74 2 85 16 80 9
-3 24 -6 35 -6 14 0 19 -7 19 -30 0 -23 4 -30 20 -30 17 0 20 -7 20 -40 0 -22
5 -40 10 -40 6 0 10 7 10 15 0 8 5 15 10 15 6 0 10 -5 10 -10 0 -13 180 -2
195 11 7 7 -28 14 -56 11 -4 -1 -6 6 -5 16 0 9 -5 16 -11 15 -7 -2 -13 3 -13
11 0 8 -5 18 -10 21 -6 4 -9 1 -8 -7 2 -7 -7 -14 -20 -16 -18 -3 -22 -8 -18
-25 3 -12 3 -16 0 -9 -3 6 -13 12 -22 12 -12 0 -13 -3 -4 -12 16 -16 15 -28
-3 -28 -8 0 -15 5 -15 10 0 6 -7 10 -15 10 -8 0 -14 8 -13 18 5 59 -3 112 -17
112 -11 0 -12 -5 -5 -26z m160 -100 c0 -19 -39 -18 -47 2 -3 9 0 20 8 24 15
10 39 -6 39 -26z"></path>
<path d="M1512 1868 c-2 -47 -1 -48 27 -48 16 0 32 -6 34 -12 4 -10 6 -10 6
-1 1 7 -12 19 -28 28 -22 11 -31 24 -34 47 -3 26 -4 22 -5 -14z"></path>
<path d="M1254 1870 c1 -25 5 -30 25 -30 l24 0 -24 28 c-13 15 -24 28 -25 30
-1 1 -1 -11 0 -28z"></path>
<path d="M721 1868 c-1 -27 1 -28 45 -28 28 0 43 4 39 10 -4 6 -11 8 -16 4
-17 -10 -57 5 -62 24 -3 10 -5 6 -6 -10z"></path>
<path d="M1307 1860 c4 -13 14 -20 30 -20 13 0 22 -4 19 -8 -2 -4 10 -6 28 -4
26 3 37 -1 50 -19 11 -16 16 -19 16 -8 0 24 -22 39 -57 39 -22 0 -33 5 -33 14
0 10 -7 12 -22 8 -14 -3 -19 -2 -14 6 4 7 1 12 -7 12 -10 0 -13 -7 -10 -20z"></path>
<path d="M941 1842 c-1 -18 -6 -42 -11 -52 -6 -12 -6 -21 -1 -25 11 -6 26 77
18 97 -3 7 -6 -2 -6 -20z"></path>
<path d="M1990 1830 c0 -5 -7 -10 -15 -10 -9 0 -15 -9 -15 -22 0 -18 -2 -20
-9 -9 -5 8 -7 20 -5 26 4 9 -19 11 -92 9 -96 -3 -146 -14 -66 -14 23 0 42 -4
42 -9 0 -6 15 -12 33 -14 l32 -4 -32 -1 c-18 -1 -33 -5 -33 -9 0 -5 37 -6 82
-4 46 2 77 6 71 8 -7 3 -13 11 -13 18 0 14 73 27 78 13 7 -17 20 -7 15 12 -6
23 -32 26 -52 8 -11 -10 -13 -10 -7 0 4 6 2 12 -3 12 -6 0 -11 -4 -11 -10z"></path>
<path d="M1250 1788 c0 -26 3 -30 11 -18 8 12 9 8 6 -15 -5 -26 -4 -28 8 -12
8 12 15 14 20 7 3 -5 10 -8 15 -5 4 3 6 -4 3 -15 -4 -15 0 -20 16 -20 11 0 21
-4 21 -9 0 -5 14 -14 30 -21 17 -7 30 -16 30 -21 0 -5 3 -8 8 -7 11 4 72 -23
72 -32 0 -9 46 -30 65 -30 28 0 15 19 -25 40 -22 11 -59 29 -82 41 -22 11 -62
37 -88 57 -26 21 -57 44 -69 52 -12 8 -19 20 -16 27 2 7 -2 13 -10 13 -10 0
-15 -11 -15 -32z"></path>
<path d="M1340 1783 c0 -7 8 -17 18 -22 14 -8 18 -5 20 13 1 16 -4 22 -18 22
-11 0 -20 -6 -20 -13z"></path>
<path d="M214 1774 c22 -21 20 -34 -4 -34 -11 0 -20 5 -20 12 0 9 -3 9 -12 0
-17 -17 -38 -15 -38 5 0 15 -1 15 -12 1 -7 -9 -22 -19 -33 -21 -11 -3 46 -5
128 -4 131 1 164 6 140 20 -5 3 -29 2 -55 -2 -42 -7 -50 -5 -70 16 -12 12 -26
23 -30 23 -5 0 -2 -7 6 -16z"></path>
<path d="M856 1768 c-31 -44 -7 -135 41 -157 31 -14 40 -14 25 1 -7 7 -13 23
-13 38 -2 23 -2 23 -6 3 -10 -51 -46 -4 -45 58 0 21 6 47 12 58 14 28 5 27
-14 -1z"></path>
<path d="M2085 1780 c3 -5 15 -10 25 -10 13 0 21 -10 25 -32 4 -18 13 -41 20
-51 12 -17 13 -17 18 2 2 11 0 25 -7 32 -8 9 -7 10 7 5 10 -3 20 -6 23 -6 2 0
1 -7 -2 -15 -4 -10 0 -15 15 -15 12 0 21 -5 21 -12 0 -6 7 -3 16 8 8 10 13 14
10 8 -3 -7 5 -19 18 -27 12 -9 29 -29 36 -46 7 -17 16 -31 21 -31 12 0 11 27
-1 35 -5 3 -10 13 -10 21 0 17 -49 63 -67 64 -6 0 -13 3 -15 8 -1 4 -31 22
-65 40 -62 32 -100 41 -88 22z"></path>
<path d="M900 1737 c0 -25 4 -49 10 -52 6 -4 7 11 3 42 -8 63 -13 67 -13 10z"></path>
<path d="M1769 1747 c11 -46 19 -57 42 -57 21 0 26 25 7 33 -8 3 -5 6 5 6 16
1 17 3 3 16 -8 8 -21 15 -28 15 -8 0 -19 5 -25 11 -9 9 -9 2 -4 -24z"></path>
<path d="M1411 1757 c-1 -11 -6 -16 -13 -12 -7 4 -4 -1 7 -10 11 -9 32 -23 48
-31 24 -13 27 -13 27 1 0 9 -13 21 -29 26 -17 6 -32 18 -34 27 -4 15 -5 15 -6
-1z"></path>
<path d="M1232 1717 c-7 -20 -29 -46 -52 -62 -46 -32 -52 -42 -12 -21 44 23
91 78 83 99 -5 15 -9 12 -19 -16z"></path>
<path d="M1603 1742 c-20 -3 -23 -9 -23 -48 0 -33 -3 -43 -12 -38 -7 4 2 -9
20 -27 17 -19 32 -44 32 -56 0 -15 8 -22 29 -25 17 -2 28 -1 26 3 -3 4 2 9 10
13 8 3 15 11 15 17 0 8 -4 9 -13 0 -8 -6 -18 -7 -22 -3 -5 4 -5 1 -1 -5 4 -8
1 -13 -7 -13 -9 0 -17 15 -22 37 -4 23 -9 32 -14 24 -6 -10 -10 -9 -15 4 -13
35 -5 45 47 60 64 19 82 29 73 44 -10 16 -46 14 -46 -3 0 -8 -5 -18 -12 -22
-7 -4 -8 -3 -4 4 4 7 3 12 -2 12 -6 0 -13 -8 -18 -17 -6 -15 -8 -12 -13 12 -5
24 -10 29 -28 27z"></path>
<path d="M1880 1717 c0 -8 -7 -17 -15 -21 -33 -12 -12 -23 23 -11 41 15 49 38
15 43 -15 2 -23 -2 -23 -11z"></path>
<path d="M1974 1718 c-3 -5 -10 -6 -15 -3 -5 3 -6 -1 -2 -10 3 -10 1 -20 -5
-24 -7 -4 5 -7 26 -7 20 0 45 -4 55 -8 10 -5 17 -4 17 3 0 6 -12 14 -26 17
-18 5 -24 12 -21 24 4 17 -19 24 -29 8z"></path>
<path d="M242 1710 c-24 -3 -47 -12 -52 -19 -10 -18 -85 -50 -97 -42 -16 10
-23 39 -10 45 7 2 5 5 -5 5 -14 1 -16 -7 -13 -44 3 -40 1 -46 -20 -51 -13 -3
-28 -4 -32 -1 -5 3 -10 -3 -10 -14 -1 -10 0 -19 3 -19 7 0 294 142 294 146 0
2 -3 3 -7 3 -5 -1 -28 -5 -51 -9z"></path>
<path d="M517 1713 c-4 -3 -7 -26 -7 -50 l0 -45 30 31 c17 16 54 39 83 50 28
11 43 20 32 20 -11 1 -42 -10 -69 -24 -52 -26 -71 -24 -63 6 5 20 4 23 -6 12z"></path>
<path d="M677 1703 c-4 -3 -7 -25 -7 -49 0 -23 -11 -89 -25 -147 -14 -58 -29
-131 -33 -163 -5 -39 -12 -58 -20 -56 -9 2 -10 -3 -3 -16 10 -20 -4 -142 -20
-174 -5 -10 -9 -33 -9 -51 0 -31 3 -34 24 -30 13 3 26 1 29 -4 2 -4 -3 -46
-13 -93 -15 -74 -17 -120 -4 -107 3 2 11 42 19 87 8 46 19 86 23 89 5 3 12 20
15 38 5 24 2 35 -10 41 -13 8 -15 18 -9 53 4 24 11 82 15 129 5 47 22 139 39
205 17 66 34 150 37 188 7 66 7 67 -17 67 -14 0 -28 -3 -31 -7z"></path>
<path d="M341 1632 c-29 -20 -49 -38 -43 -40 5 -1 22 8 37 22 15 14 36 28 46
31 11 4 19 11 19 16 0 12 3 13 -59 -29z"></path>
<path d="M1773 1663 c-23 -3 -34 -11 -42 -31 -9 -25 -9 -25 -10 -4 -1 26 -19
29 -28 5 -4 -10 -11 -21 -17 -25 -6 -4 6 -8 26 -8 20 0 40 5 43 10 4 6 27 21
53 35 46 23 42 26 -25 18z"></path>
<path d="M1970 1645 c7 -8 16 -12 21 -9 5 3 12 -2 15 -10 3 -8 22 -20 42 -27
21 -6 43 -16 50 -22 9 -7 12 -4 12 8 0 10 -3 15 -6 12 -4 -3 -16 0 -28 8 -11
8 -28 15 -37 15 -9 0 -19 8 -21 18 -3 10 -16 18 -33 20 -23 2 -26 0 -15 -13z"></path>
<path d="M584 1635 c-17 -8 -35 -20 -41 -27 -15 -18 -26 -75 -16 -81 5 -3 10
6 11 20 3 34 27 60 62 68 16 3 31 13 34 21 7 17 -9 17 -50 -1z"></path>
<path d="M2127 1626 c-2 -6 13 -28 33 -48 21 -20 35 -40 31 -43 -3 -4 7 -1 23
5 33 12 39 9 30 -13 -4 -12 -15 -15 -37 -11 -26 3 -28 2 -12 -5 11 -5 32 -10
48 -10 20 -1 27 -6 27 -20 0 -11 5 -23 12 -27 18 -12 2 66 -22 98 -17 24 -18
29 -5 42 20 19 2 30 -26 16 -12 -7 -18 -18 -15 -26 3 -8 2 -14 -2 -14 -4 0
-12 13 -18 29 -12 29 -59 49 -67 27z"></path>
<path d="M1903 1613 c-13 -2 -23 -9 -23 -14 0 -14 59 -7 72 8 11 14 -2 15 -49
6z"></path>
<path d="M2350 1610 c0 -5 5 -10 11 -10 8 0 8 -4 0 -14 -14 -17 -4 -46 16 -46
8 0 12 -4 9 -8 -3 -5 1 -9 9 -9 8 0 12 4 9 9 -3 4 -1 8 4 8 14 0 25 -34 13
-38 -16 -5 -13 -39 4 -46 13 -4 14 -2 5 14 -13 24 -2 26 26 5 10 -8 29 -15 42
-15 12 0 31 -9 42 -20 12 -12 25 -18 30 -15 5 3 12 0 16 -6 4 -8 -3 -9 -25 -4
-25 5 -30 4 -25 -9 3 -8 9 -15 12 -14 30 3 40 -4 35 -24 -3 -13 -2 -20 2 -16
5 5 14 -1 21 -11 13 -18 54 -35 54 -22 0 3 -10 11 -22 16 -15 7 -26 24 -33 50
-10 43 -20 54 -75 82 -19 10 -56 39 -81 65 -26 27 -52 48 -59 48 -7 0 -9 8 -5
20 5 16 2 20 -14 20 -12 0 -21 -4 -21 -10z"></path>
<path d="M141 1503 c-72 -48 -129 -89 -126 -91 5 -5 144 75 160 92 19 21 84
66 94 66 6 0 11 5 11 10 0 6 -2 10 -4 10 -3 0 -64 -39 -135 -87z"></path>
<path d="M493 1527 l-1 -52 10 44 c5 24 6 47 1 52 -4 4 -9 -16 -10 -44z"></path>
<path d="M469 1534 c-6 -16 -29 -117 -50 -224 -21 -107 -45 -225 -52 -262 -8
-38 -12 -68 -8 -68 29 -1 30 -19 11 -106 -39 -167 -49 -239 -50 -330 0 -88 -1
-92 -26 -109 -19 -12 -23 -20 -15 -28 20 -20 12 -31 -9 -12 -19 18 -22 16 -24
-15 -1 -10 -9 -14 -24 -12 -12 2 -22 -1 -22 -7 0 -9 68 -94 93 -116 7 -5 12
-29 12 -52 2 -179 4 -193 25 -193 12 0 25 10 32 25 13 30 6 29 93 3 60 -18
103 -21 303 -25 l232 -5 73 27 c126 48 210 86 264 123 48 31 56 34 69 20 17
-17 28 -115 13 -123 -11 -7 -12 -45 -1 -45 10 1 62 88 62 105 0 7 -6 15 -14
18 -7 3 -24 30 -36 60 l-23 55 -51 -39 c-67 -52 -234 -134 -316 -156 -131 -36
-539 -15 -631 32 -16 9 -29 12 -29 8 0 -5 -8 -18 -18 -30 -16 -22 -17 -20 -18
72 -1 56 -6 101 -13 109 -17 21 -11 208 6 202 17 -7 21 16 27 159 3 66 10 138
16 160 6 22 13 56 16 75 6 47 24 92 42 107 13 11 11 14 -11 22 -14 5 -28 19
-32 31 -7 22 3 117 13 135 4 6 7 15 7 20 3 56 19 135 25 126 5 -9 10 -8 20 3
7 9 16 13 21 10 5 -2 6 37 3 88 -3 52 -1 113 4 138 13 52 8 65 -9 24z"></path>
<path d="M1805 1531 c-11 -5 -23 -7 -26 -5 -3 2 -6 -3 -6 -12 0 -17 33 -10 57
12 16 15 6 17 -25 5z"></path>
<path d="M1648 1522 c-19 -4 -22 -11 -12 -37 5 -13 9 -11 20 11 16 30 16 32
-8 26z"></path>
<path d="M1699 1512 c-13 -6 -14 -11 -4 -36 l12 -29 5 36 c2 20 4 37 3 36 0 0
-7 -3 -16 -7z"></path>
<path d="M537 1503 c-4 -3 -7 -40 -7 -81 0 -95 9 -89 16 12 6 74 5 83 -9 69z"></path>
<path d="M1576 1498 c-2 -7 -14 -67 -26 -132 -24 -134 -55 -242 -71 -252 -7
-4 -9 0 -6 12 3 11 8 39 11 64 6 43 5 44 -7 15 -12 -30 -12 -29 -18 30 l-6 60
0 -70 c0 -38 -3 -82 -8 -97 -4 -17 -3 -28 3 -28 16 0 32 -58 32 -119 0 -66 9
-85 28 -65 10 12 10 14 -2 14 -11 0 -13 11 -10 52 3 28 7 55 10 60 3 4 1 8 -5
8 -17 0 -17 44 1 75 21 38 68 229 77 317 7 63 5 85 -3 56z"></path>
<path d="M1489 1480 c-3 -14 -6 -54 -6 -90 l-1 -65 9 55 c11 60 9 147 -2 100z"></path>
<path d="M2311 1471 c-3 -35 -76 -56 -84 -23 -3 10 -5 5 -6 -12 l-1 -28 73 7
c80 8 140 27 73 22 -35 -2 -41 1 -47 23 -4 14 -7 19 -8 11z"></path>
<path d="M1663 1453 c-14 -5 -18 -110 -5 -130 17 -27 109 -50 224 -57 99 -6
133 -4 230 15 62 12 119 26 126 32 14 11 17 31 2 22 -6 -3 -10 4 -10 17 0 13
-5 30 -10 38 -8 12 -10 9 -10 -11 0 -35 -12 -43 -95 -64 -112 -28 -351 -20
-414 14 -22 12 -33 59 -24 101 3 17 4 30 2 29 -2 0 -10 -3 -16 -6z"></path>
<path d="M1522 1423 c-6 -10 -13 -34 -17 -53 -3 -19 -9 -44 -11 -55 -12 -48
15 13 29 68 15 58 15 71 -1 40z"></path>
<path d="M2333 1398 c1 -6 -13 -16 -30 -21 -31 -9 -33 -13 -33 -56 0 -25 -3
-70 -6 -98 -6 -48 -5 -53 12 -53 14 0 16 -2 6 -9 -8 -5 8 -6 38 -3 l52 5 54
-58 c41 -44 58 -55 72 -49 15 7 14 8 -5 11 -12 3 -25 13 -28 24 -4 11 -10 17
-15 14 -9 -6 -20 18 -20 47 0 17 -2 18 -16 8 -12 -11 -18 -10 -31 3 -16 16
-15 17 17 23 32 7 32 8 11 16 -18 6 -27 4 -36 -9 -11 -14 -16 -15 -28 -4 -11
9 -21 10 -35 2 -23 -12 -36 -3 -21 15 6 8 9 21 5 29 -3 8 0 15 7 16 32 3 63
-4 70 -16 4 -7 25 -16 47 -20 39 -7 40 -7 40 -50 0 -55 25 -70 28 -17 3 39 12
55 19 34 3 -6 8 -10 13 -7 5 3 15 -1 23 -10 13 -12 16 -12 20 -1 4 9 -3 16
-19 20 -14 4 -22 10 -19 15 8 14 -26 23 -41 11 -9 -9 -15 -6 -23 9 -7 12 -26
23 -47 27 -20 4 -52 15 -72 24 -26 13 -39 15 -44 7 -10 -16 -22 -1 -15 18 4 8
16 15 28 15 28 0 19 23 -12 30 l-24 6 25 7 c14 3 27 2 28 -3 2 -6 10 -10 18
-10 17 0 18 -12 2 -29 -13 -14 -9 -14 37 5 10 4 15 0 15 -15 0 -11 9 -25 19
-31 64 -34 22 33 -45 72 -32 18 -46 42 -19 32 15 -6 15 -4 4 15 -15 23 -31 28
-26 9z"></path>
<path d="M2510 1363 c0 -28 3 -34 10 -23 13 20 13 60 0 60 -5 0 -10 -17 -10
-37z"></path>
<path d="M1228 1339 c-6 -36 -3 -39 38 -39 27 0 32 4 37 28 3 15 5 27 4 28 -1
1 -18 4 -38 7 -35 5 -37 4 -41 -24z"></path>
<path d="M1598 1333 c-1 -10 -2 -25 -3 -33 0 -8 -4 -20 -7 -26 -4 -5 -5 -19
-3 -30 2 -10 4 -25 4 -33 1 -8 4 -12 7 -9 7 8 17 148 10 148 -3 0 -7 -8 -8
-17z"></path>
<path d="M2440 1337 c0 -13 46 -45 54 -36 2 2 -10 14 -25 27 -21 17 -29 19
-29 9z"></path>
<path d="M2566 1324 c-5 -12 -1 -23 9 -31 10 -6 15 -16 12 -20 -3 -5 -2 -15 3
-22 6 -11 10 -9 19 8 8 15 9 25 1 34 -6 6 -17 21 -24 31 -12 18 -13 18 -20 0z"></path>
<path d="M2649 1292 c8 -6 10 -15 6 -22 -5 -8 -4 -11 3 -6 6 3 19 -4 29 -17
16 -21 20 -22 32 -10 11 12 10 14 -4 11 -10 -2 -20 3 -23 11 -3 10 0 12 12 8
10 -4 26 -7 36 -7 13 0 17 -5 13 -21 -4 -14 0 -22 14 -25 12 -3 26 -17 32 -30
9 -20 16 -24 32 -19 16 5 19 4 14 -5 -5 -9 -4 -11 4 -6 6 4 19 2 27 -5 13 -10
12 -14 -5 -30 -11 -11 -25 -19 -31 -19 -5 0 -10 -14 -10 -31 l0 -30 -24 28
-24 28 -36 -18 c-20 -9 -36 -21 -36 -26 0 -14 18 -23 22 -12 1 5 16 13 31 17
25 6 28 4 25 -12 -3 -13 -11 -18 -28 -16 -23 2 -24 2 -6 -11 20 -15 15 -37 -8
-33 -23 3 -128 117 -122 132 4 11 1 12 -12 6 -20 -11 -37 -6 -76 21 l-29 21 5
-21 c3 -11 1 -28 -4 -37 -7 -12 -5 -16 8 -16 10 0 26 -7 36 -17 17 -15 18 -15
18 2 0 11 5 15 15 11 9 -3 15 0 15 10 0 8 5 12 10 9 6 -4 7 -11 4 -17 -3 -5 9
-26 28 -46 29 -31 35 -45 37 -89 2 -43 -1 -53 -14 -53 -30 0 -9 -25 23 -28 27
-3 35 3 71 56 52 77 129 161 191 208 58 44 70 77 14 39 -42 -29 -54 -31 -54
-10 0 18 -16 20 -23 3 -4 -10 -6 -10 -6 0 -1 6 -9 12 -19 12 -10 0 -27 7 -38
16 -16 13 -16 15 -1 10 9 -3 17 -1 17 4 0 6 -4 10 -8 10 -5 0 -18 9 -30 20
-23 22 -90 49 -137 57 -21 3 -26 2 -16 -5z m87 -340 c-9 -8 -46 29 -46 46 0
10 9 6 26 -13 14 -15 23 -30 20 -33z"></path>
<path d="M2704 1184 c-18 -15 -18 -15 6 -10 14 3 28 6 33 6 4 0 7 5 7 10 0 15
-24 12 -46 -6z"></path>
<path d="M2591 1163 c7 -10 15 -20 16 -22 1 -2 9 2 18 9 20 16 10 30 -22 30
-23 0 -24 -2 -12 -17z"></path>
<path d="M2720 1156 c0 -24 65 -50 88 -36 16 11 16 11 0 6 -12 -3 -18 0 -18 9
0 9 -6 12 -15 8 -9 -3 -25 3 -35 12 -19 17 -20 17 -20 1z"></path>
<path d="M1661 1151 c-11 -7 -11 -9 0 -13 10 -4 7 -13 -13 -34 -24 -27 -27
-36 -26 -107 0 -43 -2 -80 -5 -84 -4 -3 -1 -15 5 -26 6 -11 14 -43 18 -71 5
-30 5 -2 2 67 -5 118 -4 123 30 119 3 -1 11 5 18 12 8 11 8 16 -1 22 -8 4 -9
3 -5 -4 4 -7 3 -12 -3 -12 -5 0 -16 -3 -25 -6 -13 -5 -16 1 -16 33 0 33 4 42
25 51 25 12 31 27 17 49 -4 7 -13 9 -21 4z"></path>
<path d="M2675 1141 c3 -5 -1 -16 -9 -24 -9 -9 -11 -19 -5 -28 7 -11 9 -11 9
4 0 9 5 17 10 17 6 0 10 -4 10 -10 0 -5 7 -10 15 -10 21 0 19 12 -5 38 -21 22
-36 30 -25 13z"></path>
<path d="M2096 1128 c-11 -36 -15 -128 -6 -128 14 0 18 14 23 83 2 31 0 57 -5
57 -5 0 -10 -6 -12 -12z"></path>
<path d="M1575 1122 c-18 -12 -16 -54 2 -50 22 4 29 28 8 28 -14 0 -15 3 -5
15 13 16 11 19 -5 7z"></path>
<path d="M2238 1050 c-2 -30 -3 -56 -3 -58 1 -1 13 2 26 7 18 8 20 10 6 10
-13 1 -17 6 -13 19 3 9 2 31 -3 47 -7 27 -9 25 -13 -25z"></path>
<path d="M2550 1036 c0 -15 22 -26 48 -25 11 0 7 5 -11 13 -15 7 -24 15 -21
19 4 4 2 7 -4 7 -7 0 -12 -6 -12 -14z"></path>
<path d="M2508 986 c15 -28 32 -54 37 -58 6 -4 6 -8 1 -8 -5 0 1 -11 13 -24
23 -24 23 -25 2 -19 -27 7 -27 -3 0 -17 23 -13 79 -4 79 12 0 6 -9 8 -20 5
-11 -3 -23 -1 -26 5 -7 12 4 58 14 56 15 -3 62 14 62 23 0 5 -22 9 -50 9 -27
0 -50 5 -50 10 0 6 -4 10 -10 10 -5 0 -7 -7 -4 -15 4 -8 12 -15 20 -15 16 0
18 -28 5 -49 -7 -11 -12 -9 -22 10 -7 13 -11 24 -9 24 2 0 0 10 -4 23 -4 12
-12 22 -18 22 -6 0 -8 11 -6 24 4 19 1 24 -18 24 l-23 0 27 -52z"></path>
<path d="M549 974 c0 -16 -4 -54 -7 -84 -3 -30 -6 -84 -5 -120 0 -36 -3 -56
-7 -45 -5 13 -9 1 -14 -39 -8 -75 -62 -291 -83 -336 -16 -34 -26 -74 -42 -155
-4 -22 -13 -50 -19 -62 -14 -26 -15 -33 -4 -33 14 0 52 76 52 103 0 14 4 28 8
31 5 3 7 19 4 36 -2 18 2 40 12 54 8 14 24 65 35 115 11 50 25 99 31 109 10
15 11 15 5 -3 -12 -37 -35 -158 -32 -162 8 -7 39 120 43 176 3 31 9 71 14 90
5 19 6 39 3 44 -3 6 -1 7 4 4 6 -4 13 2 16 13 3 11 0 20 -6 20 -7 0 -4 5 6 11
9 5 17 19 17 31 0 18 -2 19 -16 7 -15 -12 -16 -7 -9 61 8 76 8 151 -1 159 -2
2 -4 -9 -5 -25z"></path>
<path d="M1428 890 c-3 -104 -2 -110 17 -110 16 0 21 8 23 41 1 22 -1 38 -5
36 -4 -3 -7 14 -6 36 3 53 -5 107 -17 107 -5 0 -10 -50 -12 -110z"></path>
<path d="M1773 970 c33 -16 69 -30 80 -30 13 1 -2 11 -36 25 -88 37 -109 39
-44 5z"></path>
<path d="M2108 993 c-16 -2 -28 -11 -28 -18 0 -11 6 -12 30 -4 17 6 30 15 30
20 0 5 -1 8 -2 8 -2 -1 -15 -4 -30 -6z"></path>
<path d="M2010 915 c-30 -7 -44 -13 -30 -14 14 0 48 6 75 13 62 18 29 18 -45
1z"></path>
<path d="M2486 838 c29 -45 40 -95 26 -116 -5 -7 -23 -14 -41 -14 -22 -1 -30
-5 -29 -16 3 -17 -28 -29 -74 -31 -29 -1 -71 27 -62 41 3 4 -6 8 -20 8 -24 0
-84 29 -118 57 -11 10 -18 11 -23 4 -6 -10 78 -69 171 -121 l42 -23 123 48
c68 26 125 49 127 51 2 1 -2 12 -8 24 -9 17 -14 19 -26 9 -17 -14 -17 -14 -33
26 -11 28 -65 95 -76 95 -3 0 7 -19 21 -42z"></path>
<path d="M1719 799 c-10 -6 -10 -9 -1 -9 6 0 12 -7 12 -16 0 -10 -7 -14 -17
-12 -10 2 -17 10 -15 18 2 10 -2 10 -20 -2 -33 -22 -26 -32 34 -44 l53 -10 -3
37 c-4 40 -19 53 -43 38z"></path>
<path d="M1480 771 c-6 -12 -11 -45 -11 -74 0 -28 -1 -108 -2 -177 -1 -80 2
-123 8 -120 33 15 52 216 23 245 -3 4 -2 21 3 39 9 33 7 91 -4 102 -3 3 -10
-4 -17 -15z"></path>
<path d="M1609 743 c0 -10 -2 -29 -4 -43 l-4 -25 11 25 c5 14 14 33 19 43 7
12 5 17 -6 17 -8 0 -15 -8 -16 -17z"></path>
<path d="M1820 723 c0 -5 31 -15 69 -25 45 -10 100 -35 161 -72 76 -46 96 -54
112 -45 14 8 28 7 47 -1 23 -9 34 -7 72 14 47 28 29 37 -22 11 -21 -12 -34
-13 -48 -5 -11 5 -29 10 -41 10 -12 0 -58 18 -104 40 -46 21 -116 48 -157 60
-82 22 -89 23 -89 13z"></path>
<path d="M1397 693 c-12 -19 11 -66 29 -59 9 3 20 6 25 6 5 0 9 9 9 20 0 17
-5 19 -24 14 -18 -4 -25 -1 -28 13 -2 12 -6 14 -11 6z"></path>
<path d="M1632 663 c-1 -24 -3 -46 -3 -50 -1 -5 8 -13 20 -19 30 -15 80 -64
86 -84 5 -16 43 -34 100 -50 17 -4 47 -15 68 -24 35 -16 37 -15 37 3 0 10 6
23 13 28 20 16 56 22 61 9 2 -6 5 -1 5 11 1 28 18 39 24 16 3 -11 5 -8 6 9 1
21 -6 31 -31 44 -33 17 -33 16 -15 -3 23 -26 22 -30 -13 -48 -32 -17 -60 -13
-84 10 -7 7 -42 19 -77 25 -97 18 -139 30 -139 40 0 6 11 6 26 -1 42 -15 38
-4 -4 15 -21 10 -45 16 -53 14 -10 -2 -16 11 -20 47 l-6 50 -1 -42z m246 -159
c32 -22 27 -35 -8 -23 -16 6 -30 17 -30 25 0 18 10 18 38 -2z"></path>
<path d="M1580 622 c-28 -77 -56 -212 -47 -227 20 -37 -24 -47 -59 -14 l-22
21 -18 -27 c-21 -32 -33 -132 -14 -120 8 5 10 20 7 41 -6 37 -5 39 23 24 14
-7 19 -5 23 10 5 21 31 27 42 11 3 -5 -2 -16 -10 -24 -18 -19 -19 -39 -3 -55
20 -20 32 -14 52 23 17 31 18 38 5 61 -12 23 -10 42 15 165 29 141 31 180 6
111z"></path>
<path d="M1930 637 c0 -6 158 -97 167 -97 5 0 -16 14 -44 31 -29 17 -53 36
-53 41 0 6 -3 9 -6 5 -4 -3 -19 0 -35 9 -16 8 -29 13 -29 11z"></path>
<path d="M1390 613 c-9 -25 1 -227 11 -212 5 7 9 43 8 79 0 71 -12 152 -19
133z"></path>
<path d="M2140 528 c0 -6 -8 -17 -17 -24 -10 -7 -16 -15 -13 -17 3 -3 18 5 33
17 24 19 26 24 13 29 -9 4 -16 1 -16 -5z"></path>
<path d="M1354 375 c-4 -8 -14 -15 -23 -15 -19 0 -59 -26 -51 -33 11 -10 78
25 83 44 6 22 -1 26 -9 4z"></path>
<path d="M1382 357 c-12 -13 -22 -29 -22 -35 0 -6 -12 -18 -27 -26 -16 -8 -41
-29 -58 -46 -16 -18 -56 -50 -88 -72 -32 -22 -56 -42 -54 -45 13 -12 57 15
126 79 127 117 139 130 144 149 6 24 5 24 -21 -4z"></path>
<path d="M2003 357 c-26 -11 -30 -27 -8 -27 26 0 4 -30 -33 -46 -41 -17 -51
-11 -33 18 8 13 9 19 1 16 -6 -2 -21 -19 -33 -38 -17 -28 -18 -33 -5 -27 9 3
32 9 51 12 50 10 90 45 85 76 -3 23 -6 25 -25 16z"></path>
<path d="M1800 286 c0 -16 21 -56 30 -56 7 0 7 7 0 23 -10 20 -9 20 9 -3 l21
-25 0 33 c0 29 -3 32 -30 32 -16 0 -30 -2 -30 -4z"></path>
<path d="M1470 221 c-6 -13 -8 -36 -4 -58 l7 -37 13 49 c13 53 4 82 -16 46z"></path>
<path d="M1871 215 c1 -16 -2 -43 -6 -59 -8 -29 15 -114 38 -144 15 -20 19 -8
6 24 -28 74 -36 134 -16 134 26 0 26 27 0 51 l-25 24 3 -30z"></path>
<path d="M1972 224 c-16 -17 -15 -27 1 -17 6 4 22 6 33 5 12 -2 24 3 26 10 7
18 -44 19 -60 2z"></path>
<path d="M2069 199 c-11 -7 -11 -9 3 -9 23 0 124 -125 134 -167 4 -12 10 -23
15 -23 5 0 9 2 9 4 0 19 -108 180 -129 193 -11 7 -23 8 -32 2z"></path>
<path d="M1529 65 c-1 -3 -3 -9 -4 -15 -1 -5 -3 -11 -5 -12 -9 -12 -5 -35 6
-35 9 0 14 12 14 34 0 28 -7 45 -11 28z"></path>
</g>
</svg><style>@media (prefers-color-scheme: light) { :root { filter: none; } }
</style></svg>